<svg xmlns="http://www.w3.org/2000/svg" viewBox="0 0 1600 900" width="1600" height="900" role="img"><g id="art-layer" data-layout="loop"><rect width="1600" height="900" fill="#fff"/><g><circle cx="800" cy="440" r="125" fill="#e8f7f8" stroke="#151815" stroke-width="4"/><circle cx="800" cy="440" r="92" fill="#fff" stroke="#579260" stroke-width="4" stroke-dasharray="10 10"/></g><path d="M305 350L398 280" fill="none" stroke="#151815" stroke-width="5" stroke-linecap="round"/><path d="M392.82818632841173 296.4089104862685L398 280L380.8007126735552 280.42955263053057" fill="none" stroke="#151815" stroke-width="5" stroke-linecap="round" stroke-linejoin="round"/><path d="M630 195L965 195" fill="none" stroke="#151815" stroke-width="5" stroke-linecap="round"/><path d="M951 205L965 195L951 185" fill="none" stroke="#151815" stroke-width="5" stroke-linecap="round" stroke-linejoin="round"/><path d="M1205 280L1295 350" fill="none" stroke="#151815" stroke-width="5" stroke-linecap="round"/><path d="M1277.8096628215824 349.2983535845544L1295 350L1290.0884750918806 333.5113092370279" fill="none" stroke="#151815" stroke-width="5" stroke-linecap="round" stroke-linejoin="round"/><path d="M1300 565L930 650" fill="none" stroke="#151815" stroke-width="5" stroke-linecap="round"/><path d="M941.4056026159117 637.1193079002753L930 650L945.8835528346299 656.6115617935193" fill="none" stroke="#151815" stroke-width="5" stroke-linecap="round" stroke-linejoin="round"/><path d="M670 650L300 565" fill="none" stroke="#151815" stroke-width="5" stroke-linecap="round"/><path d="M315.8835528346298 558.3884382064807L300 565L311.4056026159116 577.8806920997247" fill="none" stroke="#151815" stroke-width="5" stroke-linecap="round" stroke-linejoin="round"/><g id="loop-stage-trigger"><rect x="70" y="330" width="250" height="230" rx="22" fill="#fff" stroke="#151815" stroke-width="4"/><rect x="98" y="308" width="194" height="52" rx="17" fill="#e4f1e5"/><path d="M153 363h58l28 28v96h-86z" fill="#fff" stroke="#151815" stroke-width="6" stroke-linecap="round" stroke-linejoin="round"/><path d="M211 363v28h28M171 410h48M171 431h48M171 452h34" fill="none" stroke="#151815" stroke-width="6" stroke-linecap="round" stroke-linejoin="round"/><g><rect x="84" y="488" width="28" height="28" rx="4" fill="#579260"/><path d="M91 502l5 5 10-12" fill="none" stroke="#fff" stroke-width="4" stroke-linecap="round" stroke-linejoin="round"/></g><g><rect x="84" y="520" width="28" height="28" rx="4" fill="#579260"/><path d="M91 534l5 5 10-12" fill="none" stroke="#fff" stroke-width="4" stroke-linecap="round" stroke-linejoin="round"/></g></g><g id="loop-stage-context"><rect x="370" y="80" width="250" height="230" rx="22" fill="#fff" stroke="#151815" stroke-width="4"/><rect x="398" y="58" width="194" height="52" rx="17" fill="#e4f1e5"/><path d="M419 113H571L519 177V225L471 247V177Z" fill="#e8f7f8" stroke="#151815" stroke-width="6" stroke-linecap="round" stroke-linejoin="round"/><circle cx="453" cy="150" r="8" fill="#579260"/><circle cx="495" cy="150" r="8" fill="#579260"/><circle cx="537" cy="150" r="8" fill="#a9afaa"/><g><rect x="384" y="238" width="28" height="28" rx="4" fill="#579260"/><path d="M391 252l5 5 10-12" fill="none" stroke="#fff" stroke-width="4" stroke-linecap="round" stroke-linejoin="round"/></g><g><rect x="384" y="270" width="28" height="28" rx="4" fill="#579260"/><path d="M391 284l5 5 10-12" fill="none" stroke="#fff" stroke-width="4" stroke-linecap="round" stroke-linejoin="round"/></g></g><g id="loop-stage-action"><rect x="980" y="80" width="250" height="230" rx="22" fill="#fff" stroke="#151815" stroke-width="4"/><rect x="1008" y="58" width="194" height="52" rx="17" fill="#e4f1e5"/><rect x="1039" y="127" width="132" height="105" rx="38" fill="#e8f7f8" stroke="#151815" stroke-width="6" stroke-linecap="round" stroke-linejoin="round"/><path d="M1105 127v-25m-10 0h20" fill="none" stroke="#151815" stroke-width="6" stroke-linecap="round" stroke-linejoin="round"/><circle cx="1079" cy="173" r="7" fill="#151815"/><circle cx="1131" cy="173" r="7" fill="#151815"/><path d="M1080 200q25 18 50 0" fill="none" stroke="#151815" stroke-width="6" stroke-linecap="round" stroke-linejoin="round"/><path d="M1022 165v45M1188 165v45" fill="none" stroke="#151815" stroke-width="6" stroke-linecap="round" stroke-linejoin="round"/><g><rect x="994" y="238" width="28" height="28" rx="4" fill="#579260"/><path d="M1001 252l5 5 10-12" fill="none" stroke="#fff" stroke-width="4" stroke-linecap="round" stroke-linejoin="round"/></g><g><rect x="994" y="270" width="28" height="28" rx="4" fill="#579260"/><path d="M1001 284l5 5 10-12" fill="none" stroke="#fff" stroke-width="4" stroke-linecap="round" stroke-linejoin="round"/></g></g><g id="loop-stage-review"><rect x="1280" y="330" width="250" height="230" rx="22" fill="#fff" stroke="#151815" stroke-width="4"/><rect x="1308" y="308" width="194" height="52" rx="17" fill="#e4f1e5"/><rect x="1329" y="367" width="152" height="116" rx="10" fill="#fff" stroke="#151815" stroke-width="6" stroke-linecap="round" stroke-linejoin="round"/><path d="M1405 367v116M1347 395h39M1347 420h44M1347 445h32" fill="none" stroke="#151815" stroke-width="6" stroke-linecap="round" stroke-linejoin="round"/><path d="M1422 395h42M1422 420h33M1422 445h45" fill="none" stroke="#d95335" stroke-width="6" stroke-linecap="round"/><g><rect x="1294" y="488" width="28" height="28" rx="4" fill="#579260"/><path d="M1301 502l5 5 10-12" fill="none" stroke="#fff" stroke-width="4" stroke-linecap="round" stroke-linejoin="round"/></g><g><rect x="1294" y="520" width="28" height="28" rx="4" fill="#579260"/><path d="M1301 534l5 5 10-12" fill="none" stroke="#fff" stroke-width="4" stroke-linecap="round" stroke-linejoin="round"/></g></g><g id="loop-stage-state"><rect x="675" y="590" width="250" height="230" rx="22" fill="#fff" stroke="#151815" stroke-width="4"/><rect x="703" y="568" width="194" height="52" rx="17" fill="#e4f1e5"/><ellipse cx="800" cy="612" rx="62" ry="24" fill="#73c6d4" stroke="#151815" stroke-width="6" stroke-linecap="round" stroke-linejoin="round"/><path d="M738 612v96c0 13 28 24 62 24s62-11 62-24v-96M738 658c0 13 28 24 62 24s62-11 62-24M738 695c0 13 28 24 62 24s62-11 62-24" fill="#e8f7f8" stroke="#151815" stroke-width="6" stroke-linecap="round" stroke-linejoin="round"/><g><rect x="689" y="748" width="28" height="28" rx="4" fill="#579260"/><path d="M696 762l5 5 10-12" fill="none" stroke="#fff" stroke-width="4" stroke-linecap="round" stroke-linejoin="round"/></g><g><rect x="689" y="780" width="28" height="28" rx="4" fill="#579260"/><path d="M696 794l5 5 10-12" fill="none" stroke="#fff" stroke-width="4" stroke-linecap="round" stroke-linejoin="round"/></g></g></g><g id="text-layer" data-language="zh" data-layout="loop"><g id="loop-stage-trigger-text"><text x="195" y="339" fill="#151815" font-family="Arial, PingFang SC, Microsoft YaHei, sans-serif" font-size="22" font-weight="760" text-anchor="middle"><tspan x="195" dy="0">真实触发</tspan></text><text x="124" y="509" fill="#151815" font-family="Arial, PingFang SC, Microsoft YaHei, sans-serif" font-size="14" font-weight="560" text-anchor="start"><tspan x="124" dy="0">任务或状态变化</tspan></text><text x="124" y="541" fill="#151815" font-family="Arial, PingFang SC, Microsoft YaHei, sans-serif" font-size="14" font-weight="560" text-anchor="start"><tspan x="124" dy="0">不是固定打扰</tspan></text></g><g id="loop-stage-context-text"><text x="495" y="89" fill="#151815" font-family="Arial, PingFang SC, Microsoft YaHei, sans-serif" font-size="22" font-weight="760" text-anchor="middle"><tspan x="495" dy="0">相关上下文</tspan></text><text x="424" y="259" fill="#151815" font-family="Arial, PingFang SC, Microsoft YaHei, sans-serif" font-size="14" font-weight="560" text-anchor="start"><tspan x="424" dy="0">只选择相关信息</tspan></text><text x="424" y="291" fill="#151815" font-family="Arial, PingFang SC, Microsoft YaHei, sans-serif" font-size="14" font-weight="560" text-anchor="start"><tspan x="424" dy="0">保留依据</tspan></text></g><g id="loop-stage-action-text"><text x="1105" y="89" fill="#151815" font-family="Arial, PingFang SC, Microsoft YaHei, sans-serif" font-size="22" font-weight="760" text-anchor="middle"><tspan x="1105" dy="0">AGENT 行动</tspan></text><text x="1034" y="259" fill="#151815" font-family="Arial, PingFang SC, Microsoft YaHei, sans-serif" font-size="14" font-weight="560" text-anchor="start"><tspan x="1034" dy="0">执行可逆动作</tspan></text><text x="1034" y="291" fill="#151815" font-family="Arial, PingFang SC, Microsoft YaHei, sans-serif" font-size="14" font-weight="560" text-anchor="start"><tspan x="1034" dy="0">高影响决定留给用户</tspan></text></g><g id="loop-stage-review-text"><text x="1405" y="339" fill="#151815" font-family="Arial, PingFang SC, Microsoft YaHei, sans-serif" font-size="22" font-weight="760" text-anchor="middle"><tspan x="1405" dy="0">用户审阅</tspan></text><text x="1334" y="509" fill="#151815" font-family="Arial, PingFang SC, Microsoft YaHei, sans-serif" font-size="14" font-weight="560" text-anchor="start"><tspan x="1334" dy="0">接受、修改或拒绝</tspan></text><text x="1334" y="541" fill="#151815" font-family="Arial, PingFang SC, Microsoft YaHei, sans-serif" font-size="14" font-weight="560" text-anchor="start"><tspan x="1334" dy="0">纠正事实与判断</tspan></text></g><g id="loop-stage-state-text"><text x="800" y="599" fill="#151815" font-family="Arial, PingFang SC, Microsoft YaHei, sans-serif" font-size="22" font-weight="760" text-anchor="middle"><tspan x="800" dy="0">状态更新</tspan></text><text x="729" y="769" fill="#151815" font-family="Arial, PingFang SC, Microsoft YaHei, sans-serif" font-size="14" font-weight="560" text-anchor="start"><tspan x="729" dy="0">记录确认的变化</tspan></text><text x="729" y="801" fill="#151815" font-family="Arial, PingFang SC, Microsoft YaHei, sans-serif" font-size="14" font-weight="560" text-anchor="start"><tspan x="729" dy="0">影响下一轮</tspan></text></g><text x="800" y="426" fill="#579260" font-family="Arial, PingFang SC, Microsoft YaHei, sans-serif" font-size="28" font-weight="760" text-anchor="middle"><tspan x="800" dy="0">下一轮行为改变</tspan></text></g></svg>
