<svg xmlns="http://www.w3.org/2000/svg" viewBox="0 0 1600 900" width="1600" height="900" role="img"><g id="art-layer" data-layout="branch" data-style="editorial"><rect width="1600" height="900" fill="#fff"/><g id="branch-stage-professional"><circle cx="180" cy="450" r="92" fill="#f3f5f1" stroke="#151815" stroke-width="4"/><rect x="105" y="395" width="150" height="105" rx="10" fill="#e8f7f8" stroke="#151815" stroke-width="6" stroke-linecap="round" stroke-linejoin="round"/><path d="M152 440l-22 20 22 20M208 440l22 20-22 20M190 428l-20 60" fill="none" stroke="#151815" stroke-width="6" stroke-linecap="round" stroke-linejoin="round"/><path d="M88 515h184" fill="none" stroke="#151815" stroke-width="6" stroke-linecap="round" stroke-linejoin="round"/></g><g id="branch-stage-prosumer"><circle cx="500" cy="450" r="92" fill="#f3f5f1" stroke="#151815" stroke-width="4"/><rect x="424" y="384" width="152" height="40" rx="8" fill="#fff" stroke="#151815" stroke-width="6" stroke-linecap="round" stroke-linejoin="round"/><rect x="424" y="436" width="152" height="40" rx="8" fill="#fff" stroke="#151815" stroke-width="6" stroke-linecap="round" stroke-linejoin="round"/><rect x="424" y="488" width="152" height="40" rx="8" fill="#fff" stroke="#151815" stroke-width="6" stroke-linecap="round" stroke-linejoin="round"/><circle cx="552" cy="404" r="9" fill="#579260"/><circle cx="552" cy="456" r="9" fill="#579260"/><circle cx="552" cy="508" r="9" fill="#579260"/></g><g id="branch-stage-public"><circle cx="820" cy="450" r="92" fill="#e8f7f8" stroke="#151815" stroke-width="4"/><rect x="754" y="402" width="132" height="105" rx="38" fill="#e8f7f8" stroke="#151815" stroke-width="6" stroke-linecap="round" stroke-linejoin="round"/><path d="M820 402v-25m-10 0h20" fill="none" stroke="#151815" stroke-width="6" stroke-linecap="round" stroke-linejoin="round"/><circle cx="794" cy="448" r="7" fill="#151815"/><circle cx="846" cy="448" r="7" fill="#151815"/><path d="M795 475q25 18 50 0" fill="none" stroke="#151815" stroke-width="6" stroke-linecap="round" stroke-linejoin="round"/><path d="M737 440v45M903 440v45" fill="none" stroke="#151815" stroke-width="6" stroke-linecap="round" stroke-linejoin="round"/></g><path d="M275 450L405 450" fill="none" stroke="#151815" stroke-width="5" stroke-linecap="round"/><path d="M391 460L405 450L391 440" fill="none" stroke="#151815" stroke-width="5" stroke-linecap="round" stroke-linejoin="round"/><path d="M595 450L725 450" fill="none" stroke="#151815" stroke-width="5" stroke-linecap="round"/><path d="M711 460L725 450L711 440" fill="none" stroke="#151815" stroke-width="5" stroke-linecap="round" stroke-linejoin="round"/><path d="M915 450L965 450" fill="none" stroke="#579260" stroke-width="5" stroke-linecap="round"/><path d="M951 460L965 450L951 440" fill="none" stroke="#579260" stroke-width="5" stroke-linecap="round" stroke-linejoin="round"/><circle cx="975" cy="450" r="18" fill="#151815"/><path d="M978 438L1174 215" fill="none" stroke="#579260" stroke-width="5" stroke-linecap="round"/><path d="M1172.2687320950747 232.1173219704887L1174 215L1157.2464463830754 218.91387802631007" fill="none" stroke="#579260" stroke-width="5" stroke-linecap="round" stroke-linejoin="round"/><path d="M985 450L1290 450" fill="none" stroke="#73c6d4" stroke-width="5" stroke-linecap="round"/><path d="M1276 460L1290 450L1276 440" fill="none" stroke="#73c6d4" stroke-width="5" stroke-linecap="round" stroke-linejoin="round"/><path d="M978 462L1174 685" fill="none" stroke="#d95335" stroke-width="5" stroke-linecap="round"/><path d="M1157.2464463830754 681.08612197369L1174 685L1172.2687320950747 667.8826780295113" fill="none" stroke="#d95335" stroke-width="5" stroke-linecap="round" stroke-linejoin="round"/><g id="branch-outcome-work"><circle cx="1260" cy="190" r="86" fill="#e4f1e5" stroke="#151815" stroke-width="4"/><rect x="1184" y="124" width="152" height="40" rx="8" fill="#fff" stroke="#151815" stroke-width="6" stroke-linecap="round" stroke-linejoin="round"/><rect x="1184" y="176" width="152" height="40" rx="8" fill="#fff" stroke="#151815" stroke-width="6" stroke-linecap="round" stroke-linejoin="round"/><rect x="1184" y="228" width="152" height="40" rx="8" fill="#fff" stroke="#151815" stroke-width="6" stroke-linecap="round" stroke-linejoin="round"/><circle cx="1312" cy="144" r="9" fill="#579260"/><circle cx="1312" cy="196" r="9" fill="#579260"/><circle cx="1312" cy="248" r="9" fill="#579260"/></g><g id="branch-outcome-leisure"><circle cx="1380" cy="450" r="86" fill="#e8f7f8" stroke="#151815" stroke-width="4"/><path d="M1338 388h58l28 28v96h-86z" fill="#fff" stroke="#151815" stroke-width="6" stroke-linecap="round" stroke-linejoin="round"/><path d="M1396 388v28h28M1356 435h48M1356 456h48M1356 477h34" fill="none" stroke="#151815" stroke-width="6" stroke-linecap="round" stroke-linejoin="round"/></g><g id="branch-outcome-entertainment"><circle cx="1260" cy="710" r="86" fill="#fff0eb" stroke="#151815" stroke-width="4"/><rect x="1194" y="670" width="132" height="96" rx="36" fill="#e8f7f8" stroke="#151815" stroke-width="6" stroke-linecap="round" stroke-linejoin="round"/><path d="M1260 670v-28m-9 0h18" fill="none" stroke="#151815" stroke-width="6" stroke-linecap="round" stroke-linejoin="round"/><circle cx="1235" cy="713" r="7" fill="#151815"/><circle cx="1285" cy="713" r="7" fill="#151815"/><path d="M1230 740h60" fill="none" stroke="#151815" stroke-width="6" stroke-linecap="round" stroke-linejoin="round"/><circle cx="1332" cy="754" r="22" fill="#fff" stroke="#151815" stroke-width="6" stroke-linecap="round" stroke-linejoin="round"/><path d="M1332 741v26M1319 754h26" fill="none" stroke="#151815" stroke-width="6" stroke-linecap="round" stroke-linejoin="round"/></g></g><g id="text-layer" data-language="en" data-layout="branch" data-style="editorial"><text x="800" y="85" fill="#579260" font-family="Arial, PingFang SC, Microsoft YaHei, sans-serif" font-size="29" font-weight="760" text-anchor="middle"><tspan x="800" dy="0">ONE ADOPTION PATH, THREE OPTIMIZATION TARGETS</tspan></text><g id="branch-stage-professional-text"><text x="180" y="580" fill="#151815" font-family="Arial, PingFang SC, Microsoft YaHei, sans-serif" font-size="24" font-weight="760" text-anchor="middle"><tspan x="180" dy="0">PROFESSIONALS</tspan></text><text x="180" y="620" fill="#a9afaa" font-family="Arial, PingFang SC, Microsoft YaHei, sans-serif" font-size="16" font-weight="560" text-anchor="middle"><tspan x="180" dy="0">CODING AGENTS</tspan></text></g><g id="branch-stage-prosumer-text"><text x="500" y="580" fill="#151815" font-family="Arial, PingFang SC, Microsoft YaHei, sans-serif" font-size="24" font-weight="760" text-anchor="middle"><tspan x="500" dy="0">PROSUMERS</tspan></text><text x="500" y="620" fill="#a9afaa" font-family="Arial, PingFang SC, Microsoft YaHei, sans-serif" font-size="16" font-weight="560" text-anchor="middle"><tspan x="500" dy="0">WORK AGENTS</tspan></text></g><g id="branch-stage-public-text"><text x="820" y="580" fill="#151815" font-family="Arial, PingFang SC, Microsoft YaHei, sans-serif" font-size="24" font-weight="760" text-anchor="middle"><tspan x="820" dy="0">PUBLIC</tspan></text><text x="820" y="620" fill="#a9afaa" font-family="Arial, PingFang SC, Microsoft YaHei, sans-serif" font-size="16" font-weight="560" text-anchor="middle"><tspan x="820" dy="0">PERSONAL AGENTS</tspan></text></g><g id="branch-outcome-work-text"><text x="1260" y="308" fill="#151815" font-family="Arial, PingFang SC, Microsoft YaHei, sans-serif" font-size="25" font-weight="760" text-anchor="middle"><tspan x="1260" dy="0">WORK</tspan></text><text x="1260" y="342" fill="#a9afaa" font-family="Arial, PingFang SC, Microsoft YaHei, sans-serif" font-size="15" font-weight="560" text-anchor="middle"><tspan x="1260" dy="0">PRODUCTION &amp; COORDINATION</tspan></text></g><g id="branch-outcome-leisure-text"><text x="1380" y="568" fill="#151815" font-family="Arial, PingFang SC, Microsoft YaHei, sans-serif" font-size="25" font-weight="760" text-anchor="middle"><tspan x="1380" dy="0">LEISURE</tspan></text><text x="1380" y="602" fill="#a9afaa" font-family="Arial, PingFang SC, Microsoft YaHei, sans-serif" font-size="15" font-weight="560" text-anchor="middle"><tspan x="1380" dy="0">LEARNING, REFLECTION,</tspan><tspan x="1380" dy="17.25">GROWTH</tspan></text></g><g id="branch-outcome-entertainment-text"><text x="1260" y="828" fill="#151815" font-family="Arial, PingFang SC, Microsoft YaHei, sans-serif" font-size="25" font-weight="760" text-anchor="middle"><tspan x="1260" dy="0">ENTERTAINMENT</tspan></text><text x="1260" y="862" fill="#a9afaa" font-family="Arial, PingFang SC, Microsoft YaHei, sans-serif" font-size="15" font-weight="560" text-anchor="middle"><tspan x="1260" dy="0">EMOTIONAL VALUE &amp;</tspan><tspan x="1260" dy="17.25">ENGAGEMENT</tspan></text></g></g></svg>
