<svg xmlns="http://www.w3.org/2000/svg" viewBox="0 0 1600 900" width="1600" height="900" role="img"><g id="art-layer" data-layout="before-after" data-style="editorial"><rect width="1600" height="900" fill="#fff"/><path d="M800 80v700" stroke="#151815" stroke-width="2"/><path d="M50 230h690" stroke="#a9afaa" stroke-width="3"/><path d="M860 230h690" stroke="#579260" stroke-width="3"/><g id="before-after-stage-old-workflow"><circle cx="210" cy="335" r="116" fill="#f3f5f1"/><rect x="134" y="269" width="152" height="40" rx="8" fill="#fff" stroke="#151815" stroke-width="6" stroke-linecap="round" stroke-linejoin="round"/><rect x="134" y="321" width="152" height="40" rx="8" fill="#fff" stroke="#151815" stroke-width="6" stroke-linecap="round" stroke-linejoin="round"/><rect x="134" y="373" width="152" height="40" rx="8" fill="#fff" stroke="#151815" stroke-width="6" stroke-linecap="round" stroke-linejoin="round"/><circle cx="262" cy="289" r="9" fill="#579260"/><circle cx="262" cy="341" r="9" fill="#579260"/><circle cx="262" cy="393" r="9" fill="#579260"/><circle cx="104" cy="545" r="7" fill="#a9afaa"/><circle cx="104" cy="583" r="7" fill="#a9afaa"/></g><g id="before-after-stage-ai-layer"><circle cx="590" cy="335" r="116" fill="#f3f5f1"/><rect x="524" y="287" width="132" height="105" rx="38" fill="#e8f7f8" stroke="#151815" stroke-width="6" stroke-linecap="round" stroke-linejoin="round"/><path d="M590 287v-25m-10 0h20" fill="none" stroke="#151815" stroke-width="6" stroke-linecap="round" stroke-linejoin="round"/><circle cx="564" cy="333" r="7" fill="#151815"/><circle cx="616" cy="333" r="7" fill="#151815"/><path d="M565 360q25 18 50 0" fill="none" stroke="#151815" stroke-width="6" stroke-linecap="round" stroke-linejoin="round"/><path d="M507 325v45M673 325v45" fill="none" stroke="#151815" stroke-width="6" stroke-linecap="round" stroke-linejoin="round"/><circle cx="484" cy="545" r="7" fill="#a9afaa"/><circle cx="484" cy="583" r="7" fill="#a9afaa"/></g><g id="before-after-stage-human-life"><circle cx="1010" cy="335" r="116" fill="#e8f7f8"/><path d="M968 273h58l28 28v96h-86z" fill="#fff" stroke="#151815" stroke-width="6" stroke-linecap="round" stroke-linejoin="round"/><path d="M1026 273v28h28M986 320h48M986 341h48M986 362h34" fill="none" stroke="#151815" stroke-width="6" stroke-linecap="round" stroke-linejoin="round"/><circle cx="904" cy="545" r="7" fill="#579260"/><circle cx="904" cy="583" r="7" fill="#579260"/></g><g id="before-after-stage-native-product"><circle cx="1390" cy="335" r="116" fill="#e8f7f8"/><rect x="1318" y="273" width="144" height="124" rx="14" fill="#e8f7f8" stroke="#151815" stroke-width="6" stroke-linecap="round" stroke-linejoin="round"/><g><rect x="1335" y="295" width="28" height="28" rx="4" fill="#579260"/><path d="M1342 309l5 5 10-12" fill="none" stroke="#fff" stroke-width="4" stroke-linecap="round" stroke-linejoin="round"/></g><g><rect x="1335" y="337" width="28" height="28" rx="4" fill="#579260"/><path d="M1342 351l5 5 10-12" fill="none" stroke="#fff" stroke-width="4" stroke-linecap="round" stroke-linejoin="round"/></g><path d="M1378 308h62M1378 350h62" fill="none" stroke="#151815" stroke-width="6" stroke-linecap="round" stroke-linejoin="round"/><circle cx="1284" cy="545" r="7" fill="#579260"/><circle cx="1284" cy="583" r="7" fill="#579260"/></g><path d="M335 335L465 335" fill="none" stroke="#a9afaa" stroke-width="5" stroke-linecap="round"/><path d="M451 345L465 335L451 325" fill="none" stroke="#a9afaa" stroke-width="5" stroke-linecap="round" stroke-linejoin="round"/><path d="M1135 335L1265 335" fill="none" stroke="#579260" stroke-width="5" stroke-linecap="round"/><path d="M1251 345L1265 335L1251 325" fill="none" stroke="#579260" stroke-width="5" stroke-linecap="round" stroke-linejoin="round"/></g></svg>
