<svg xmlns="http://www.w3.org/2000/svg" viewBox="0 0 1600 900" width="1600" height="900" role="img"><g id="art-layer" data-layout="dual-loop" data-style="editorial"><rect width="1600" height="900" fill="#fff"/><defs><marker id="dual-arrow-0" viewBox="0 0 10 10" refX="9" refY="5" markerWidth="8" markerHeight="8" orient="auto-start-reverse"><path d="M0 0l10 5-10 5z" fill="#73c6d4"/></marker><marker id="dual-arrow-1" viewBox="0 0 10 10" refX="9" refY="5" markerWidth="8" markerHeight="8" orient="auto-start-reverse"><path d="M0 0l10 5-10 5z" fill="#579260"/></marker></defs><circle cx="800" cy="455" r="112" fill="#f3f5f1"/><g id="dual-loop-technology"><path d="M470 200Q600 225 600 360" fill="none" stroke="#73c6d4" stroke-width="12" marker-end="url(#dual-arrow-0)"/><path d="M590 502Q580 620 325 620" fill="none" stroke="#73c6d4" stroke-width="12" marker-end="url(#dual-arrow-0)"/><path d="M180 600Q235 255 335 205" fill="none" stroke="#73c6d4" stroke-width="12" marker-end="url(#dual-arrow-0)"/><g id="dual-loop-technology-improve"><circle cx="400" cy="185" r="76" fill="#e8f7f8"/><rect x="334" y="137" width="132" height="105" rx="38" fill="#e8f7f8" stroke="#151815" stroke-width="6" stroke-linecap="round" stroke-linejoin="round"/><path d="M400 137v-25m-10 0h20" fill="none" stroke="#151815" stroke-width="6" stroke-linecap="round" stroke-linejoin="round"/><circle cx="374" cy="183" r="7" fill="#151815"/><circle cx="426" cy="183" r="7" fill="#151815"/><path d="M375 210q25 18 50 0" fill="none" stroke="#151815" stroke-width="6" stroke-linecap="round" stroke-linejoin="round"/><path d="M317 175v45M483 175v45" fill="none" stroke="#151815" stroke-width="6" stroke-linecap="round" stroke-linejoin="round"/></g><g id="dual-loop-technology-encapsulate"><circle cx="600" cy="430" r="76" fill="#e8f7f8"/><rect x="524" y="364" width="152" height="40" rx="8" fill="#fff" stroke="#151815" stroke-width="6" stroke-linecap="round" stroke-linejoin="round"/><rect x="524" y="416" width="152" height="40" rx="8" fill="#fff" stroke="#151815" stroke-width="6" stroke-linecap="round" stroke-linejoin="round"/><rect x="524" y="468" width="152" height="40" rx="8" fill="#fff" stroke="#151815" stroke-width="6" stroke-linecap="round" stroke-linejoin="round"/><circle cx="652" cy="384" r="9" fill="#579260"/><circle cx="652" cy="436" r="9" fill="#579260"/><circle cx="652" cy="488" r="9" fill="#579260"/></g><g id="dual-loop-technology-recede"><circle cx="250" cy="620" r="76" fill="#e8f7f8"/><rect x="175" y="565" width="150" height="105" rx="10" fill="#e8f7f8" stroke="#151815" stroke-width="6" stroke-linecap="round" stroke-linejoin="round"/><path d="M222 610l-22 20 22 20M278 610l22 20-22 20M260 598l-20 60" fill="none" stroke="#151815" stroke-width="6" stroke-linecap="round" stroke-linejoin="round"/><path d="M158 685h184" fill="none" stroke="#151815" stroke-width="6" stroke-linecap="round" stroke-linejoin="round"/></g></g><g id="dual-loop-habit"><path d="M1270 200Q1400 225 1400 360" fill="none" stroke="#579260" stroke-width="12" marker-end="url(#dual-arrow-1)"/><path d="M1390 502Q1380 620 1125 620" fill="none" stroke="#579260" stroke-width="12" marker-end="url(#dual-arrow-1)"/><path d="M980 600Q1035 255 1135 205" fill="none" stroke="#579260" stroke-width="12" marker-end="url(#dual-arrow-1)"/><g id="dual-loop-habit-repeat"><circle cx="1200" cy="185" r="76" fill="#e4f1e5"/><rect x="1128" y="123" width="144" height="124" rx="14" fill="#e8f7f8" stroke="#151815" stroke-width="6" stroke-linecap="round" stroke-linejoin="round"/><g><rect x="1145" y="145" width="28" height="28" rx="4" fill="#579260"/><path d="M1152 159l5 5 10-12" fill="none" stroke="#fff" stroke-width="4" stroke-linecap="round" stroke-linejoin="round"/></g><g><rect x="1145" y="187" width="28" height="28" rx="4" fill="#579260"/><path d="M1152 201l5 5 10-12" fill="none" stroke="#fff" stroke-width="4" stroke-linecap="round" stroke-linejoin="round"/></g><path d="M1188 158h62M1188 200h62" fill="none" stroke="#151815" stroke-width="6" stroke-linecap="round" stroke-linejoin="round"/></g><g id="dual-loop-habit-default"><circle cx="1400" cy="430" r="76" fill="#e4f1e5"/><rect x="1330" y="370" width="140" height="120" rx="14" fill="#e4f1e5" stroke="#151815" stroke-width="6" stroke-linecap="round" stroke-linejoin="round"/><g><rect x="1346" y="390" width="28" height="28" rx="4" fill="#579260"/><path d="M1353 404l5 5 10-12" fill="none" stroke="#fff" stroke-width="4" stroke-linecap="round" stroke-linejoin="round"/></g><g><rect x="1346" y="435" width="28" height="28" rx="4" fill="#579260"/><path d="M1353 449l5 5 10-12" fill="none" stroke="#fff" stroke-width="4" stroke-linecap="round" stroke-linejoin="round"/></g><path d="M1390 405h58M1390 450h58" fill="none" stroke="#151815" stroke-width="6" stroke-linecap="round" stroke-linejoin="round"/><path d="M1428 476l28 35 5-22 22-5z" fill="#fff" stroke="#151815" stroke-width="6" stroke-linecap="round" stroke-linejoin="round"/></g><g id="dual-loop-habit-ecosystem"><circle cx="1050" cy="620" r="76" fill="#e4f1e5"/><ellipse cx="1050" cy="572" rx="62" ry="24" fill="#73c6d4" stroke="#151815" stroke-width="6" stroke-linecap="round" stroke-linejoin="round"/><path d="M988 572v96c0 13 28 24 62 24s62-11 62-24v-96M988 618c0 13 28 24 62 24s62-11 62-24M988 655c0 13 28 24 62 24s62-11 62-24" fill="#e8f7f8" stroke="#151815" stroke-width="6" stroke-linecap="round" stroke-linejoin="round"/></g></g><path d="M705 385L895 385" fill="none" stroke="#73c6d4" stroke-width="5" stroke-linecap="round"/><path d="M881 395L895 385L881 375" fill="none" stroke="#73c6d4" stroke-width="5" stroke-linecap="round" stroke-linejoin="round"/><path d="M895 525L705 525" fill="none" stroke="#579260" stroke-width="5" stroke-linecap="round"/><path d="M719 515L705 525L719 535" fill="none" stroke="#579260" stroke-width="5" stroke-linecap="round" stroke-linejoin="round"/><path d="M690 760h220" stroke="#151815" stroke-width="2"/></g></svg>
